<svg width="84" height="84" viewBox="0 0 84 84" fill="none" xmlns="http://www.w3.org/2000/svg">
<path d="M81.9513 42C81.9513 64.0645 64.0645 81.9513 42 81.9513C19.9356 81.9513 2.04883 64.0645 2.04883 42C2.04883 19.9356 19.9356 2.04883 42 2.04883C64.0645 2.04883 81.9513 19.9356 81.9513 42Z" fill="#5225B5"/>
<path d="M81.9512 42C81.9512 19.9356 64.0644 2.04878 42 2.04878C19.9356 2.04878 2.04878 19.9356 2.04878 42C2.04878 64.0644 19.9356 81.9512 42 81.9512C64.0644 81.9512 81.9512 64.0644 81.9512 42ZM84 42C84 65.196 65.196 84 42 84C18.804 84 0 65.196 0 42C0 18.804 18.804 0 42 0C65.196 0 84 18.804 84 42Z" fill="white"/>
<path d="M30.8853 27.6586H29.279L29.1499 26.497C28.691 27.1853 27.6871 27.8737 26.1526 27.8737C23.4134 27.8737 21.0757 25.8659 21.0757 22.5817C21.0757 19.2975 23.5281 17.2754 26.2817 17.2754C28.9492 17.2754 30.4263 18.8386 30.9283 20.4018L29.0352 21.0759C28.7771 20.1724 27.9309 19.1254 26.2817 19.1254C24.7471 19.1254 23.0835 20.1724 23.0835 22.5817C23.0835 24.8764 24.5894 26.0667 26.296 26.0667C28.1747 26.0667 28.9061 24.8047 29.0209 24.0876H25.8084V22.3666H30.8853V27.6586Z" fill="white"/>
<path d="M35.937 26.1384C36.8692 26.1384 37.7297 25.4644 37.7297 24.1306C37.7297 22.7969 36.8692 22.1228 35.937 22.1228C35.0048 22.1228 34.1444 22.7969 34.1444 24.1306C34.1444 25.45 35.0048 26.1384 35.937 26.1384ZM35.937 20.3875C38.0452 20.3875 39.6371 21.9507 39.6371 24.1306C39.6371 26.2962 38.0452 27.8737 35.937 27.8737C33.8288 27.8737 32.2369 26.2962 32.2369 24.1306C32.2369 21.9507 33.8288 20.3875 35.937 20.3875Z" fill="white"/>
<path d="M44.4243 26.1384C45.3565 26.1384 46.217 25.4644 46.217 24.1306C46.217 22.7969 45.3565 22.1228 44.4243 22.1228C43.4921 22.1228 42.6316 22.7969 42.6316 24.1306C42.6316 25.45 43.4921 26.1384 44.4243 26.1384ZM44.4243 20.3875C46.5325 20.3875 48.1244 21.9507 48.1244 24.1306C48.1244 26.2962 46.5325 27.8737 44.4243 27.8737C42.3161 27.8737 40.7242 26.2962 40.7242 24.1306C40.7242 21.9507 42.3161 20.3875 44.4243 20.3875Z" fill="white"/>
<path d="M56.4682 17.2754V26.3822C56.4682 26.8555 56.4969 27.3718 56.5256 27.6586H54.7042C54.6755 27.5152 54.6325 27.171 54.6325 26.8411C54.317 27.4005 53.5999 27.8307 52.6534 27.8307C50.6456 27.8307 49.2114 26.2531 49.2114 24.1163C49.2114 22.0511 50.6025 20.4305 52.596 20.4305C53.815 20.4305 54.3887 20.9325 54.5895 21.3053V17.2754H56.4682ZM51.1332 24.1163C51.1332 25.3783 51.8789 26.1241 52.8828 26.1241C53.858 26.1241 54.6181 25.3783 54.6181 24.1019C54.6181 22.8399 53.858 22.1371 52.8828 22.1371C51.9076 22.1371 51.1332 22.8542 51.1332 24.1163Z" fill="white"/>
<path d="M30.0821 40.9757H28.0887V36.7593H23.6572V40.9757H21.678V30.8076H23.6572V34.8949H28.0887V30.8076H30.0821V40.9757Z" fill="white"/>
<path d="M33.5985 36.6446H36.7536C36.7249 35.9418 36.266 35.2534 35.1761 35.2534C34.1865 35.2534 33.6415 35.9992 33.5985 36.6446ZM36.9401 38.4803L38.532 38.9535C38.1734 40.1726 37.0548 41.1908 35.3195 41.1908C33.3834 41.1908 31.6767 39.7997 31.6767 37.419C31.6767 35.1674 33.3403 33.7046 35.1474 33.7046C37.3273 33.7046 38.6323 35.0957 38.6323 37.3616C38.6323 37.6341 38.6037 37.921 38.6037 37.9496H33.5555C33.5985 38.8818 34.3873 39.5559 35.3338 39.5559C36.223 39.5559 36.7106 39.1113 36.9401 38.4803Z" fill="white"/>
<path d="M39.7441 39.0539C39.7441 37.7919 40.6763 37.0891 41.8523 36.917L43.5877 36.6589C43.9892 36.6015 44.1183 36.4008 44.1183 36.157C44.1183 35.655 43.7311 35.2391 42.9279 35.2391C42.0961 35.2391 41.6372 35.7697 41.5799 36.3864L39.8876 36.0279C40.0023 34.9236 41.0205 33.7046 42.9136 33.7046C45.1509 33.7046 45.9827 34.9666 45.9827 36.3864V39.857C45.9827 40.2299 46.0257 40.7319 46.0687 40.9757H44.3191C44.276 40.7892 44.2474 40.402 44.2474 40.1295C43.8888 40.6889 43.2148 41.1765 42.1678 41.1765C40.662 41.1765 39.7441 40.1582 39.7441 39.0539ZM42.5694 39.7567C43.3725 39.7567 44.1183 39.3694 44.1183 38.1217V37.8062L42.5264 38.05C42.0388 38.1217 41.6516 38.3942 41.6516 38.9392C41.6516 39.3551 41.9527 39.7567 42.5694 39.7567Z" fill="white"/>
<path d="M49.7844 40.9757H47.877V30.5925H49.7844V40.9757Z" fill="white"/>
<path d="M54.2095 31.8115V33.9197H55.6293V35.612H54.2095V38.5663C54.2095 39.183 54.4964 39.3838 55.0413 39.3838C55.2708 39.3838 55.5289 39.3551 55.6293 39.3264V40.904C55.4572 40.9757 55.113 41.0761 54.5537 41.0761C53.1769 41.0761 52.3165 40.2586 52.3165 38.8962V35.612H51.0401V33.9197H51.3986C52.1444 33.9197 52.4885 33.4321 52.4885 32.801V31.8115H54.2095Z" fill="white"/>
<path d="M59.0699 36.831V40.9757H57.1625V30.5925H59.0699V34.5077C59.5289 33.9627 60.3033 33.7332 60.9774 33.7332C62.77 33.7332 63.6018 34.981 63.6018 36.5298V40.9757H61.6944V36.8597C61.6944 36.0709 61.3072 35.4542 60.3893 35.4542C59.5862 35.4542 59.113 36.0566 59.0699 36.831Z" fill="white"/>
<path d="M26.2817 54.5079C23.442 54.5079 21.0757 52.457 21.0757 49.2159C21.0757 45.9747 23.5281 43.9095 26.253 43.9095C29.0639 43.9095 30.5124 45.6305 30.9139 47.2798L29.0496 47.8678C28.8058 46.8926 28.017 45.817 26.253 45.817C24.7328 45.817 23.1265 46.9069 23.1265 49.2159C23.1265 51.3814 24.6467 52.5718 26.2817 52.5718C28.017 52.5718 28.8631 51.4388 29.1356 50.4923L30.9857 51.0516C30.5984 52.6148 29.1356 54.5079 26.2817 54.5079Z" fill="white"/>
<path d="M31.8871 52.371C31.8871 51.109 32.8193 50.4062 33.9953 50.2341L35.7307 49.976C36.1322 49.9186 36.2613 49.7178 36.2613 49.474C36.2613 48.9721 35.8741 48.5562 35.071 48.5562C34.2392 48.5562 33.7802 49.0868 33.7229 49.7035L32.0306 49.345C32.1453 48.2407 33.1635 47.0216 35.0566 47.0216C37.2939 47.0216 38.1257 48.2837 38.1257 49.7035V53.1741C38.1257 53.547 38.1687 54.049 38.2117 54.2928H36.4621C36.4191 54.1063 36.3904 53.7191 36.3904 53.4466C36.0318 54.0059 35.3578 54.4935 34.3109 54.4935C32.805 54.4935 31.8871 53.4753 31.8871 52.371ZM34.7124 53.0737C35.5155 53.0737 36.2613 52.6865 36.2613 51.4388V51.1233L34.6694 51.3671C34.1818 51.4388 33.7946 51.7113 33.7946 52.2563C33.7946 52.6722 34.0957 53.0737 34.7124 53.0737Z" fill="white"/>
<path d="M41.9274 50.2341V54.2928H40.02V47.2368H41.87V48.1116C42.3003 47.3802 43.1464 47.0503 43.9065 47.0503C45.6562 47.0503 46.4593 48.298 46.4593 49.8469V54.2928H44.5519V50.1768C44.5519 49.388 44.1647 48.7713 43.2468 48.7713C42.415 48.7713 41.9274 49.4167 41.9274 50.2341Z" fill="white"/>
<path d="M47.9276 45.0712C47.9276 44.5119 48.4009 44.0243 49.0749 44.0243C49.835 44.0243 50.3227 44.6553 50.3227 45.4154C50.3227 47.3371 49.0032 48.0399 48.0997 48.1259V47.2511C48.6447 47.165 49.247 46.6918 49.2757 46.0321C49.204 46.0751 49.1036 46.1038 48.9746 46.1038C48.3292 46.1038 47.9276 45.6735 47.9276 45.0712Z" fill="white"/>
<path d="M54.3356 45.1286V47.2368H55.7554V48.929H54.3356V51.8834C54.3356 52.5001 54.6224 52.7009 55.1674 52.7009C55.3968 52.7009 55.655 52.6722 55.7554 52.6435V54.2211C55.5833 54.2928 55.2391 54.3931 54.6798 54.3931C53.303 54.3931 52.4425 53.5757 52.4425 52.2132V48.929H51.1661V47.2368H51.5246C52.2704 47.2368 52.6146 46.7491 52.6146 46.1181V45.1286H54.3356Z" fill="white"/>
<path d="M31.2725 64.469L33.1082 57.4417H35.1303L32.3194 67.6098H30.2829L27.9596 60.3674L25.6363 67.6098H23.5711L20.7458 57.4417H22.8397L24.7041 64.4404L26.9557 57.4417H29.0065L31.2725 64.469Z" fill="white"/>
<path d="M35.2624 65.6881C35.2624 64.426 36.1946 63.7233 37.3706 63.5512L39.1059 63.293C39.5075 63.2357 39.6366 63.0349 39.6366 62.7911C39.6366 62.2891 39.2494 61.8732 38.4462 61.8732C37.6144 61.8732 37.1555 62.4039 37.0981 63.0206L35.4059 62.662C35.5206 61.5577 36.5388 60.3387 38.4319 60.3387C40.6692 60.3387 41.501 61.6008 41.501 63.0206V66.4912C41.501 66.8641 41.544 67.366 41.587 67.6098H39.8374C39.7943 67.4234 39.7657 67.0362 39.7657 66.7637C39.4071 67.323 38.7331 67.8106 37.6861 67.8106C36.1803 67.8106 35.2624 66.7924 35.2624 65.6881ZM38.0877 66.3908C38.8908 66.3908 39.6366 66.0036 39.6366 64.7559V64.4404L38.0447 64.6842C37.5571 64.7559 37.1699 65.0284 37.1699 65.5733C37.1699 65.9892 37.471 66.3908 38.0877 66.3908Z" fill="white"/>
<path d="M45.3027 67.6098H43.3953V60.5538H45.3027V67.6098ZM43.1658 58.2449C43.1658 57.5851 43.6964 57.0545 44.3418 57.0545C45.0015 57.0545 45.5178 57.5851 45.5178 58.2449C45.5178 58.8759 45.0015 59.4065 44.3418 59.4065C43.6964 59.4065 43.1658 58.8759 43.1658 58.2449Z" fill="white"/>
<path d="M49.7278 58.4456V60.5538H51.1476V62.2461H49.7278V65.2005C49.7278 65.8171 50.0146 66.0179 50.5596 66.0179C50.7891 66.0179 51.0472 65.9892 51.1476 65.9606V67.5381C50.9755 67.6098 50.6313 67.7102 50.072 67.7102C48.6952 67.7102 47.8347 66.8928 47.8347 65.5303V62.2461H46.5584V60.5538H46.9169C47.6626 60.5538 48.0068 60.0662 48.0068 59.4352V58.4456H49.7278Z" fill="white"/>
<path d="M52.3796 66.4051C52.3796 65.6881 52.9676 65.1001 53.6847 65.1001C54.4161 65.1001 55.0041 65.6881 55.0041 66.4051C55.0041 67.1222 54.4161 67.7102 53.6847 67.7102C52.9676 67.7102 52.3796 67.1222 52.3796 66.4051Z" fill="white"/>
</svg>
