<svg width="1470" height="324" viewBox="0 0 1470 324" fill="none" xmlns="http://www.w3.org/2000/svg">
<path d="M979.618 213.332C1001.03 217.786 1011.83 230.982 1011.83 247.072C1011.83 264.915 998.153 283.227 969.692 283.227C941.002 283.227 928.845 266.694 925.44 254.189C924.926 251.65 926.378 249.051 928.881 248.322L947.358 244.2C948.493 244.012 949.65 244.735 949.98 245.923C951.485 253.748 957.798 260.461 969.467 260.461C979.169 260.461 983.834 255.313 983.834 249.51C983.834 244.605 980.49 240.57 972.148 238.81L957.773 235.436C936.823 230.763 927.352 218.02 927.352 202.615C927.352 182.963 944.546 166.645 967.933 166.645C994.918 166.645 1006.24 181.808 1009.55 193.545C1010.01 196.034 1008.62 198.563 1006.14 199.336L990.392 202.941C987.447 203.586 985.794 202.02 984.844 199.541C982.723 194.239 977.825 189.195 968.146 189.195C960.442 189.195 954.262 193.888 954.262 200.128C954.262 205.51 958.225 208.854 964.192 209.983L979.618 213.332V213.332ZM1337.37 148.335C1337.37 165.238 1323.82 178.95 1307.13 178.95C1290.44 178.95 1276.9 165.238 1276.9 148.335C1276.9 131.417 1290.44 117.718 1307.13 117.718C1323.82 117.718 1337.37 131.417 1337.37 148.335ZM1335.41 102.996C1307.37 102.996 1284.59 79.9546 1284.59 51.5035C1284.59 23.0583 1307.37 4.08486e-05 1335.41 4.08486e-05C1363.52 4.08486e-05 1386.31 23.0583 1386.31 51.5035C1386.31 79.9546 1363.52 102.996 1335.41 102.996ZM1441.71 35.4061C1457.04 35.4061 1469.5 47.9854 1469.5 63.5556C1469.5 79.0832 1457.04 91.6865 1441.71 91.6865C1426.37 91.6865 1413.91 79.0832 1413.91 63.5556C1413.91 47.9854 1426.37 35.4061 1441.71 35.4061ZM1404.86 101.46C1434.15 101.46 1457.84 125.448 1457.84 155.116C1457.84 184.714 1434.15 208.708 1404.86 208.708C1375.64 208.708 1351.92 184.714 1351.92 155.116C1351.92 125.448 1375.64 101.46 1404.86 101.46ZM1289.11 291.191C1296.71 291.191 1302.87 297.432 1302.87 305.134C1302.87 312.828 1296.71 319.055 1289.11 319.055C1281.5 319.055 1275.35 312.828 1275.35 305.134C1275.35 297.432 1281.5 291.191 1289.11 291.191ZM1328.99 199.598C1350.98 199.598 1368.86 217.66 1368.86 239.979C1368.86 262.256 1350.98 280.348 1328.99 280.348C1306.95 280.348 1289.11 262.256 1289.11 239.979C1289.11 217.66 1306.95 199.598 1328.99 199.598ZM1261.92 314.109V92.914C1261.15 59.1158 1241.01 30.171 1212.29 16.9947C1202.77 12.8105 1192.48 10.124 1181.78 9.54791C1128.77 6.70699 1087.83 38.4494 1076.91 81.2871C1069.8 107.375 1075.3 138.73 1093.04 165.08C1114.8 197.437 1204.3 283.223 1247.5 321.444C1248.99 322.55 1250.82 323.233 1252.82 323.233C1257.82 323.233 1261.86 319.159 1261.92 314.109ZM1243.25 212.543C1243.25 221.504 1236.08 228.794 1227.22 228.794C1218.34 228.794 1211.17 221.504 1211.17 212.543C1211.17 203.588 1218.34 196.302 1227.22 196.302C1236.08 196.302 1243.25 203.588 1243.25 212.543ZM935.747 142.12C934.881 144.067 919.349 175.164 919.349 175.164C918.835 176.136 917.7 176.829 916.762 176.829H906.958C905.947 176.829 905.135 176.006 905.135 174.979C905.135 174.821 905.155 174.662 905.194 174.513L914.992 152.32C907.211 150.361 901.369 143.255 901.369 134.797C901.369 124.855 909.432 116.689 919.25 116.689C929.268 116.689 937.327 124.855 937.327 134.797C937.327 138.245 936.614 140.167 935.751 142.12H935.747ZM573.533 255.98C558.059 255.98 546.604 244.363 546.604 224.721C546.604 205.063 558.517 193.882 573.533 193.882C588.527 193.882 600.219 204.833 600.219 224.491C600.219 244.363 588.527 255.98 573.533 255.98ZM599.636 180.692C596.422 174.901 587.6 167.299 569.112 167.299C538.448 167.299 517.059 192.559 517.059 224.721C517.059 257.991 539.091 282.562 569.998 282.562C584.55 282.562 595.573 275.854 600.424 267.155C600.454 270.763 600.913 276.189 601.243 278.043C601.409 278.994 602.819 279.907 603.917 279.907H623.557C626.329 279.907 628.574 277.613 628.574 274.834V123.234C628.574 120.429 626.329 118.162 623.557 118.162H604.651C601.887 118.162 599.636 120.429 599.636 123.234V180.692ZM704.033 255.98C688.553 255.98 677.1 244.363 677.1 224.721C677.1 205.063 689.014 193.882 704.033 193.882C719.021 193.882 730.715 204.833 730.715 224.491C730.715 244.363 719.021 255.98 704.033 255.98ZM730.136 180.692C726.917 174.901 718.091 167.299 699.613 167.299C668.947 167.299 647.553 192.559 647.553 224.721C647.553 257.991 669.59 282.562 700.492 282.562C715.044 282.562 726.07 275.854 730.918 267.155C730.947 270.763 731.409 276.189 731.736 278.043C731.902 278.994 733.313 279.907 734.418 279.907H754.055C756.821 279.907 759.066 277.613 759.066 274.834V123.234C759.066 120.429 756.821 118.162 754.055 118.162H735.147C732.381 118.162 730.136 120.429 730.136 123.234V180.692V180.692ZM422.975 212.422C423.643 202.36 432.013 190.761 447.232 190.761C464.005 190.761 471.064 201.477 471.503 212.422H422.975ZM446.794 166.639C418.998 166.639 393.428 189.408 393.428 224.491C393.428 261.566 419.661 283.227 449.438 283.227C474.322 283.227 490.796 269.47 497.406 252.254C498.135 250.236 497.095 248.075 495.105 247.339L478.158 242.154C476.349 241.787 473.973 242.324 472.918 244.447C468.942 252.405 461.699 257.769 449.666 257.769C435.11 257.769 422.975 247.277 422.309 232.758H495.328C498.055 232.758 500.134 230.549 500.278 227.759C500.347 226.433 500.403 225.041 500.403 223.578C500.403 188.293 480.33 166.639 446.794 166.639V166.639ZM890.171 175.016L826.362 318.451C824.875 321.087 821.657 323.233 818.984 323.233H797.877C795.134 323.233 794.113 320.986 795.409 318.161L818.725 266.036L775.056 175.075C773.486 172.276 774.507 169.989 777.243 169.989H799.93C802.685 169.989 806.19 172.276 807.75 175.044L834.38 234.329L858.982 175.033C860.536 172.276 864.043 170.003 866.76 169.983H888.017C890.732 169.983 891.484 172.119 890.171 175.016V175.016ZM202.722 169.107C205.15 169.107 207.348 169.315 209.56 169.533V199.459C206.249 198.785 203.371 198.567 200.732 198.567C185.744 198.567 172.712 205.949 172.712 229.623V274.861C172.673 277.626 170.442 279.899 167.706 279.899H148.385C145.646 279.899 143.418 277.626 143.376 274.861V174.91C143.464 172.206 145.688 169.987 148.385 169.987H167.134C169.737 170.156 171.815 172.327 171.815 175.011V186.291C178.451 171.771 193.464 169.105 202.722 169.105V169.107ZM330.977 192.34H306.258V148.313H330.977C346.415 148.313 355.462 157.024 355.462 170.436C355.462 183.415 346.415 192.34 330.977 192.34ZM353.247 215.095C373.753 209.084 386.576 192.34 386.576 170.234C386.576 142.718 367.167 121.529 336.701 121.529H280.609C277.839 121.529 275.596 123.821 275.596 126.603V274.834C275.596 277.638 277.839 279.907 280.609 279.907H301.247C304.006 279.907 306.258 277.608 306.258 274.834V218.916H322.138L350.35 274.834C351.771 277.638 355.176 279.907 357.94 279.907H381.689C384.423 279.907 385.555 277.608 384.164 274.834L353.247 215.095V215.095ZM223.863 240.777C235.121 240.777 244.165 249.944 244.165 261.119C244.165 272.275 235.121 281.455 223.863 281.455C212.831 281.455 203.796 272.275 203.796 261.119C203.796 249.944 212.831 240.777 223.863 240.777ZM45.7506 251.34H30.4371V150.119H45.9944C71.5756 150.119 92.7582 166.428 92.7582 200.817C92.7582 235.239 71.3642 251.34 45.7506 251.34ZM47.0713 121.506H5.0174C2.286 121.506 0 123.812 0 126.583V274.829C0 277.638 2.286 279.901 5.0174 279.901H46.849C91.4316 279.901 124.331 250.88 124.331 200.817C124.331 150.783 91.6589 121.506 47.0713 121.506Z" fill="#6900EF"/>
</svg>
