<svg width="248" height="60" viewBox="0 0 248 60" fill="none" xmlns="http://www.w3.org/2000/svg">
<path d="M20.0028 0C20.0028 2.62681 19.4854 5.22789 18.4802 7.65475C17.475 10.0816 16.0016 12.2867 14.1441 14.1441C12.2867 16.0016 10.0816 17.475 7.65475 18.4802C5.2279 19.4854 2.62681 20.0028 6.30314e-06 20.0028L5.42879e-06 1.7487e-06L20.0028 0Z" fill="#FFFD6F"/>
<path d="M0 40.0056C-2.29643e-07 37.3788 0.517388 34.7778 1.52262 32.3509C2.52786 29.924 4.00126 27.719 5.85869 25.8615C7.71612 24.0041 9.92122 22.5307 12.3481 21.5255C14.7749 20.5202 17.376 20.0028 20.0028 20.0028V40.0056L0 40.0056Z" fill="#FEA05E"/>
<path d="M20.0028 40.0056C20.0028 42.6325 19.4854 45.2335 18.4802 47.6604C17.475 50.0872 16.0016 52.2923 14.1441 54.1498C12.2867 56.0072 10.0816 57.4806 7.65475 58.4858C5.2279 59.4911 2.62681 60.0085 6.30314e-06 60.0085L0 40.0056L20.0028 40.0056Z" fill="#C87BF1"/>
<path d="M20.0028 0C22.6296 -1.14821e-07 25.2307 0.517389 27.6576 1.52262C30.0844 2.52786 32.2895 4.00126 34.1469 5.85869C36.0044 7.71612 37.4778 9.92122 38.483 12.3481C39.4882 14.7749 40.0056 17.376 40.0056 20.0028L20.0028 20.0028L20.0028 0Z" fill="#67B7FD"/>
<path d="M20.0028 40.0056C22.6296 40.0056 25.2307 39.4882 27.6576 38.483C30.0844 37.4778 32.2895 36.0044 34.1469 34.1469C36.0044 32.2895 37.4778 30.0844 38.483 27.6576C39.4882 25.2307 40.0056 22.6296 40.0056 20.0028L20.0028 20.0028V40.0056Z" fill="#81EC81"/>
<path d="M192.023 18.0215C196.782 18.0215 200.527 19.0277 203.258 21.0391C206.005 23.0504 207.608 25.7892 208.065 29.2559L198.499 29.8447C198.335 29.0271 197.984 28.2908 197.444 27.6367C196.905 26.9665 196.193 26.4354 195.311 26.043C194.552 25.6852 193.662 25.4842 192.641 25.4395L192.195 25.4297C190.576 25.4297 189.211 25.7731 188.099 26.46C186.987 27.1304 186.431 28.0299 186.431 29.1582C186.431 30.0575 186.79 30.8181 187.51 31.4395C188.229 32.0609 189.464 32.5594 191.214 32.9356L198.033 34.3096C201.696 35.0618 204.427 36.2716 206.226 37.9395C208.024 39.6075 208.924 41.7991 208.924 44.5137C208.924 46.9828 208.197 49.1495 206.741 51.0137C205.302 52.8779 203.323 54.3333 200.805 55.3799C198.303 56.41 195.417 56.9248 192.146 56.9248C187.159 56.9248 183.184 55.8864 180.225 53.8096C177.281 51.7164 175.556 48.8709 175.049 45.2734L185.327 44.7344L185.391 45.0147C185.734 46.3984 186.465 47.4655 187.584 48.2168C188.778 49.0017 190.307 49.3945 192.171 49.3945C194.002 49.3945 195.474 49.043 196.586 48.3399C197.714 47.6204 198.286 46.6966 198.303 45.5684C198.286 44.6199 197.886 43.8424 197.101 43.2373C196.316 42.6161 195.106 42.1424 193.471 41.8154L186.946 40.5147C183.267 39.7788 180.527 38.5037 178.729 36.6885C176.946 34.8734 176.055 32.5596 176.055 29.7471C176.055 27.3269 176.709 25.241 178.018 23.4912C179.342 21.7418 181.198 20.3927 183.585 19.4443C185.989 18.4959 188.802 18.0215 192.023 18.0215Z" fill="white"/>
<path fill-rule="evenodd" clip-rule="evenodd" d="M229.074 18.0215C232.884 18.0216 236.171 18.8394 238.935 20.4746C241.715 22.0936 243.857 24.3668 245.361 27.294C246.866 30.2047 247.618 33.6062 247.618 37.4981C247.618 41.3573 246.866 44.7506 245.361 47.6777C243.857 50.5885 241.715 52.8618 238.935 54.4971C236.171 56.1159 232.884 56.9247 229.074 56.9248C225.264 56.9248 221.968 56.1159 219.188 54.4971C216.425 52.8618 214.291 50.5885 212.786 47.6777C211.282 44.7506 210.529 41.3573 210.529 37.4981C210.529 33.6062 211.282 30.2047 212.786 27.294C214.291 24.3668 216.425 22.0936 219.188 20.4746C221.968 18.8393 225.264 18.0215 229.074 18.0215ZM229.123 25.9941C227.373 25.9941 225.902 26.4928 224.708 27.4902C223.531 28.4877 222.639 29.8447 222.034 31.5615C221.445 33.2786 221.15 35.2335 221.15 37.4248C221.15 39.6159 221.446 41.5702 222.034 43.2871C222.639 45.004 223.531 46.361 224.708 47.3584C225.902 48.3395 227.373 48.8301 229.123 48.8301C230.856 48.83 232.304 48.3395 233.465 47.3584C234.626 46.361 235.5 45.0038 236.089 43.2871C236.694 41.5702 236.997 39.6159 236.997 37.4248C236.997 35.2335 236.694 33.2786 236.089 31.5615C235.5 29.8448 234.626 28.4877 233.465 27.4902C232.304 26.4928 230.856 25.9942 229.123 25.9941Z" fill="white"/>
<path fill-rule="evenodd" clip-rule="evenodd" d="M156.852 18.0332C158.663 18.0869 160.407 18.3286 162.081 18.7578C164.01 19.2484 165.719 20.0089 167.207 21.0391C168.711 22.0693 169.897 23.3938 170.764 25.0127C171.63 26.6153 172.064 28.537 172.064 30.7774V56.1895H162.154V50.9649H161.859C161.254 52.1421 160.445 53.1808 159.432 54.0801C158.418 54.9631 157.199 55.6581 155.776 56.165C154.354 56.6556 152.71 56.9004 150.846 56.9004C148.442 56.9003 146.3 56.4833 144.42 55.6494C142.539 54.7991 141.051 53.5481 139.955 51.8965C138.876 50.2285 138.336 48.1516 138.336 45.666C138.336 43.573 138.721 41.8152 139.489 40.3926C140.258 38.9699 141.304 37.8247 142.629 36.958C143.953 36.0914 145.458 35.4376 147.143 34.9961C148.843 34.5546 150.625 34.2434 152.489 34.0635C154.681 33.8345 156.447 33.622 157.788 33.4258C159.129 33.2132 160.102 32.9029 160.707 32.4941C161.312 32.0853 161.614 31.48 161.614 30.6787V30.5313C161.614 28.9779 161.124 27.7761 160.143 26.9258C159.238 26.1287 157.975 25.7051 156.352 25.6553L156.021 25.6504C154.141 25.6505 152.645 26.0675 151.533 26.9014C150.421 27.719 149.685 28.7494 149.325 29.9922L139.661 29.207C140.152 26.9177 141.117 24.9385 142.556 23.2705C143.995 21.5865 145.85 20.2948 148.123 19.3955C150.412 18.4798 153.062 18.0215 156.071 18.0215L156.852 18.0332ZM161.688 38.7246C161.361 38.9372 160.911 39.1336 160.339 39.3135C159.783 39.477 159.153 39.6321 158.45 39.7793C157.747 39.9101 157.044 40.033 156.341 40.1475C155.638 40.2456 155 40.3352 154.428 40.417C153.201 40.5969 152.13 40.8829 151.214 41.2754C150.298 41.6679 149.587 42.1997 149.08 42.8701C148.573 43.5242 148.319 44.3422 148.319 45.3232C148.319 46.7457 148.835 47.8328 149.865 48.585C150.912 49.3208 152.236 49.6895 153.839 49.6895C155.376 49.6894 156.733 49.3862 157.91 48.7813C159.088 48.1598 160.012 47.3259 160.683 46.2793C161.353 45.2328 161.688 44.0472 161.688 42.7227V38.7246Z" fill="white"/>
<path fill-rule="evenodd" clip-rule="evenodd" d="M66.7324 5.95313C70.5426 5.95313 73.7888 6.68132 76.4707 8.13673C79.1526 9.57578 81.1972 11.5791 82.6035 14.1465C84.026 16.6974 84.7373 19.6408 84.7373 22.9766C84.7373 26.3123 84.0179 29.2557 82.5791 31.8066C81.14 34.3577 79.0542 36.3449 76.3232 37.7676C73.6087 39.1902 70.322 39.9014 66.4629 39.9014H57.5342V56.1895H46.9131V5.95313H66.7324ZM57.5342 31.3897H64.7461C66.7901 31.3896 68.4743 31.0381 69.7988 30.335C71.1397 29.6155 72.1369 28.6263 72.791 27.3672C73.4615 26.0917 73.7969 24.6282 73.7969 22.9766C73.7969 21.3086 73.4615 19.8532 72.791 18.6104C72.1369 17.3513 71.1397 16.3782 69.7988 15.6914C68.5417 15.0322 66.9685 14.6818 65.0791 14.6406L64.6973 14.6367H57.5342V31.3897Z" fill="white"/>
<path d="M98.4355 56.1895H87.9863V18.5127H98.4355V56.1895Z" fill="white"/>
<path d="M113.802 5.95313V32.8125H114.366L126.435 18.5127H138.43L124.455 34.833L139.141 56.1895H126.9L116.634 40.9932L113.802 44.2275V56.1895H103.353V5.95313H113.802Z" fill="white"/>
<path d="M93.2354 3.08302C94.7889 3.08302 96.1133 3.60677 97.209 4.65333C98.321 5.68356 98.877 6.91838 98.877 8.35743C98.8769 9.8127 98.3209 11.0639 97.209 12.1104C96.1134 13.1404 94.7888 13.6553 93.2354 13.6553C91.682 13.6553 90.3492 13.1404 89.2373 12.1104C88.1417 11.0639 87.5938 9.8127 87.5938 8.35743C87.5938 6.91838 88.1417 5.68356 89.2373 4.65333C90.3493 3.60677 91.6819 3.08303 93.2354 3.08302Z" fill="white"/>
</svg>
